<svg width="512" height="512" viewBox="0 0 512 512" fill="none" xmlns="http://www.w3.org/2000/svg">
<path d="M388.502 353.464L314.876 391.282C308.5 384.858 299.671 380.873 289.928 380.873H239.192C236.936 380.873 236.11 380.734 235.862 380.675C235.402 380.363 234.255 379.285 233.325 378.409L232.84 377.952C191.544 339.063 156.648 341.53 116.962 357.194C110.752 359.643 110.634 359.648 104.478 359.929L93.3015 359.943C89.8127 350.055 80.3872 342.947 69.3307 342.947H32.0005C17.9852 342.947 6.58276 354.363 6.58276 368.394V466.296C6.58276 480.313 17.9852 491.715 32.0005 491.715H69.3297C80.3872 491.715 89.8127 484.615 93.3015 474.737H113.83C116.153 474.938 118.419 475.411 120.628 476.155L217.16 501.968C221.387 503.113 225.268 504.241 229.022 505.332C241.488 508.955 251.968 512 262.894 511.999C275.239 511.999 288.153 508.112 305.142 496.78C305.227 496.723 305.311 496.666 305.394 496.607L424.416 411.851C440.062 400.688 444.622 380.54 435.021 364.977C425.53 349.633 405.525 344.686 388.502 353.464ZM74.7484 466.297C74.7484 469.235 72.2666 471.717 69.3297 471.717H32.0005C29.0627 471.717 26.5818 469.235 26.5818 466.297V368.395C26.5818 365.442 29.0637 362.947 32.0005 362.947H69.3297C72.2676 362.947 74.7484 365.442 74.7484 368.395V466.297ZM412.807 395.567L293.918 480.228C269.719 496.334 259.42 493.34 234.6 486.128C230.762 485.013 226.793 483.86 222.359 482.657L125.801 456.838C121.916 455.633 117.924 454.933 113.828 454.739H94.7475V379.953L105.388 379.908C112.999 379.561 115.358 379.326 124.302 375.798C158.7 362.22 185.245 360.603 219.137 392.52L219.616 392.97C225.452 398.465 229.068 400.871 239.192 400.871H289.928C298.293 400.871 305.097 407.677 305.097 416.042C305.097 424.391 298.293 431.184 289.928 431.184H207.675C202.152 431.184 197.675 435.661 197.675 441.183C197.675 446.706 202.152 451.183 207.675 451.183H289.928C309.32 451.183 325.096 435.419 325.096 416.042C325.096 413.592 324.842 411.2 324.363 408.89L397.652 371.245C404.332 367.802 413.471 368.155 418.005 375.488C422.002 381.968 419.765 390.603 412.807 395.567V395.567Z" fill="#453F3F"/>
<path d="M236.754 236.517C225.929 241.79 218.451 252.904 218.451 265.732C218.451 279.876 227.558 291.928 240.218 296.36V311.253C240.218 329.489 255.042 344.325 273.261 344.325H317.562C335.797 344.325 350.633 329.489 350.633 311.253V296.36C363.293 291.928 372.401 279.875 372.401 265.732C372.401 252.903 364.922 241.789 354.097 236.516C358.476 220.249 367.352 208.137 376.688 195.431C391.049 175.886 407.326 153.733 407.291 114.712C407.291 111.229 407.147 107.653 406.863 104.084C406.425 98.5782 401.619 94.4834 396.102 94.9084C390.597 95.3463 386.489 100.164 386.927 105.67C387.169 108.713 387.292 111.755 387.292 114.72C387.321 147.183 374.328 164.867 360.571 183.589C350.132 197.795 339.39 212.44 334.271 233.254H256.577C251.458 212.442 240.712 197.798 230.272 183.593C216.511 164.871 203.513 147.187 203.556 114.723C203.6 80.1081 218.431 58.2471 230.865 46.0037C247.986 29.1446 271.438 19.669 295.283 20.005C295.379 20.006 295.474 20.006 295.57 20.005C314.998 19.71 334.483 26.0427 350.39 37.8031C354.829 41.086 361.093 40.147 364.375 35.7072C367.658 31.2665 366.72 25.0048 362.279 21.7219C342.911 7.40462 319.175 -0.297998 295.424 0.00898681C266.336 -0.345996 237.707 11.2044 216.835 31.7574C195.108 53.1524 183.601 81.834 183.559 114.7C183.507 153.737 199.792 175.893 214.16 195.44C223.496 208.143 232.375 220.253 236.754 236.517V236.517ZM330.635 311.254C330.635 318.462 324.771 324.327 317.563 324.327H273.262C266.069 324.327 260.218 318.462 260.218 311.254V298.181H330.635V311.254ZM250.927 253.255H339.926C346.805 253.255 352.403 258.852 352.403 265.732C352.403 272.597 346.806 278.181 339.926 278.181H250.927C244.047 278.181 238.45 272.597 238.45 265.732C238.45 258.852 244.047 253.255 250.927 253.255Z" fill="#453F3F"/>
<path d="M305.425 73.0474C305.425 67.5247 300.949 63.0479 295.426 63.0479C289.903 63.0479 285.426 67.5247 285.426 73.0474V135.065C285.426 140.588 289.903 145.065 295.426 145.065C300.949 145.065 305.425 140.588 305.425 135.065V73.0474Z" fill="#453F3F"/>
<path d="M295.426 170.303C289.903 170.303 285.426 174.78 285.426 180.303V180.36C285.426 185.883 289.903 190.332 295.426 190.332C300.949 190.332 305.426 185.827 305.426 180.304C305.426 174.781 300.949 170.303 295.426 170.303Z" fill="#453F3F"/>
<path d="M495.419 114.634H454.803C449.28 114.634 444.803 119.111 444.803 124.634C444.803 130.157 449.28 134.633 454.803 134.633H495.419C500.942 134.633 505.418 130.157 505.418 124.634C505.418 119.111 500.942 114.634 495.419 114.634V114.634Z" fill="#453F3F"/>
<path d="M438.004 50.2245C439.92 50.2245 441.857 49.6746 443.567 48.5266L477.267 25.9077C481.853 22.8299 483.075 16.6182 479.997 12.0324C476.92 7.44763 470.708 6.22469 466.121 9.30254L432.421 31.9214C427.835 34.9993 426.613 41.212 429.691 45.7968C431.622 48.6716 434.783 50.2245 438.004 50.2245V50.2245Z" fill="#453F3F"/>
<path d="M477.268 223.36L443.567 200.741C438.982 197.663 432.769 198.886 429.692 203.471C426.614 208.056 427.837 214.269 432.422 217.346L466.122 239.965C467.832 241.113 469.769 241.663 471.685 241.663C474.906 241.663 478.068 240.11 479.998 237.235C483.076 232.65 481.854 226.437 477.268 223.36Z" fill="#453F3F"/>
<path d="M95.4333 134.633H136.021C141.544 134.633 146.021 130.157 146.021 124.634C146.021 119.111 141.544 114.634 136.021 114.634H95.4333C89.9106 114.634 85.4338 119.111 85.4338 124.634C85.4338 130.157 89.9106 134.633 95.4333 134.633V134.633Z" fill="#453F3F"/>
<path d="M113.585 25.9087L147.285 48.5276C148.995 49.6756 150.932 50.2255 152.848 50.2255C156.069 50.2255 159.23 48.6726 161.16 45.7977C164.238 41.213 163.015 35.0003 158.43 31.9224L124.73 9.30352C120.144 6.22567 113.933 7.44861 110.855 12.0334C107.777 16.6182 108.999 22.8309 113.585 25.9087V25.9087Z" fill="#453F3F"/>
<path d="M147.286 200.741L113.586 223.36C109 226.438 107.778 232.651 110.856 237.235C112.786 240.11 115.946 241.663 119.168 241.663C121.084 241.663 123.021 241.113 124.731 239.965L158.431 217.346C163.017 214.269 164.239 208.056 161.161 203.471C158.083 198.886 151.871 197.663 147.286 200.741Z" fill="#453F3F"/>
<path d="M377.44 69.2345C379.39 71.1835 381.939 72.1564 384.49 72.1564C387.05 72.1564 389.612 71.1765 391.568 69.2205C395.473 65.3155 395.459 58.9695 391.554 55.0635C387.649 51.1585 381.317 51.1585 377.411 55.0635C373.506 58.9685 373.506 65.3005 377.411 69.2065L377.44 69.2345Z" fill="#453F3F"/>
</svg>
