<svg width="480" height="480" viewBox="0 0 480 480" fill="none" xmlns="http://www.w3.org/2000/svg">
<g clip-path="url(#clip0)">
<path d="M152.066 248.026C152.066 252.443 155.648 256.025 160.065 256.025H224.054C228.471 256.025 232.052 252.443 232.052 248.026V184.037C231.982 165.978 219.812 150.208 202.362 145.556C220.808 126.712 220.593 96.5101 201.878 77.9314C183.166 59.3526 152.965 59.3526 134.253 77.9314C115.538 96.5101 115.323 126.712 133.769 145.556C116.315 150.208 104.149 165.978 104.075 184.037V211.536C104.075 215.954 107.656 219.535 112.074 219.535C116.491 219.535 120.072 215.954 120.072 211.536V184.037C120.072 170.786 130.816 160.042 144.068 160.042H192.059C205.315 160.042 216.055 170.786 216.055 184.037V240.027H160.065C155.648 240.027 152.066 243.609 152.066 248.026ZM168.064 80.056C185.736 80.056 200.058 94.3815 200.058 112.05C200.058 129.719 185.736 144.045 168.064 144.045C150.395 144.045 136.069 129.719 136.069 112.05C136.069 94.3815 150.395 80.056 168.064 80.056Z" fill="#453F3F"/>
<path d="M192.059 200.035C196.477 200.035 200.058 196.453 200.058 192.036C200.058 187.619 196.477 184.037 192.059 184.037H176.062C171.645 184.037 168.064 187.619 168.064 192.036C168.064 196.453 171.645 200.035 176.062 200.035H192.059Z" fill="#453F3F"/>
<path d="M472.978 405.088L376.827 308.937C369.539 302.013 358.776 300.212 349.633 304.391L307.242 262C358.018 186.838 339.951 84.938 266.425 31.8186C192.899 -21.3047 90.4798 -6.45583 35.0678 65.3595C-20.3403 137.175 -8.72517 240.012 61.3092 297.658C64.7188 300.466 69.7608 299.982 72.5689 296.568C75.3809 293.159 74.8927 288.117 71.4832 285.309C7.05717 232.541 -2.9801 137.784 48.9677 72.6941C100.912 7.60416 195.531 -3.63211 261.277 47.4838C327.02 98.5997 339.455 193.071 289.179 259.458C287.261 262 285.308 264.504 283.235 266.91C283.059 267.128 282.86 267.32 282.676 267.534C278.024 272.889 273.002 277.911 267.647 282.563C267.397 282.782 267.167 283.02 266.913 283.235C264.511 285.277 262.062 287.234 259.559 289.101C233.267 309.14 201.124 320.002 168.064 320.013C165.529 320.013 163.01 319.884 160.506 319.752C156.089 319.506 152.313 322.892 152.066 327.309C151.824 331.726 155.21 335.503 159.628 335.749C162.436 335.897 165.224 336.034 168.064 336.034C201.554 336.069 234.282 326.04 262 307.238L308.96 354.199C312.085 357.323 317.146 357.323 320.271 354.199L354.206 320.263C357.378 317.248 362.353 317.248 365.525 320.263L461.668 416.422C464.784 419.542 464.784 424.6 461.668 427.721L427.74 461.66C426.24 463.164 424.202 464.007 422.081 464.007C419.956 464.007 417.921 463.164 416.422 461.66L353.409 398.648C350.269 395.617 345.282 395.66 342.197 398.745C339.111 401.831 339.068 406.818 342.099 409.958L405.111 472.97C414.481 482.344 429.677 482.344 439.05 472.97L472.978 439.039C482.351 429.67 482.351 414.473 472.978 405.104V405.088ZM297.552 274.908L337.237 314.592L314.616 337.217L274.927 297.529C283.164 290.722 290.741 283.145 297.552 274.908Z" fill="#453F3F"/>
<path d="M168.064 288.019C163.646 288.019 160.065 291.6 160.065 296.018C160.065 300.435 163.646 304.016 168.064 304.016C210.162 304.153 249.932 284.723 275.693 251.428C301.458 218.137 310.288 174.762 299.595 134.046C298.49 129.77 294.127 127.196 289.847 128.301C285.57 129.403 282.996 133.769 284.102 138.046C293.565 173.969 285.789 212.255 263.054 241.637C240.32 271.022 205.217 288.16 168.064 288.019V288.019Z" fill="#453F3F"/>
<path d="M233.853 49.0616C173.375 15.5363 97.3613 32.7754 57.263 89.113C17.1647 145.447 25.7686 222.913 77.2477 269.077C79.3685 271.042 82.3796 271.709 85.1291 270.827C87.8748 269.944 89.9369 267.652 90.5188 264.824C91.1007 261.992 90.1126 259.071 87.9333 257.177C42.5508 216.434 34.9857 148.118 70.3505 98.4317C105.715 48.7413 172.746 33.5214 226.104 63.0591C229.967 65.1993 234.837 63.8012 236.977 59.9347C239.117 56.0721 237.719 51.2018 233.853 49.0616V49.0616Z" fill="#453F3F"/>
<path d="M72.0807 423.995C67.6635 423.995 64.0822 427.576 64.0822 431.993C64.0822 436.411 67.6635 439.992 72.0807 439.992H120.072C124.489 439.992 128.071 436.411 128.071 431.993C128.071 427.576 124.489 423.995 120.072 423.995H72.0807Z" fill="#453F3F"/>
<path d="M224.054 352.008H136.069V248.026C136.085 244.394 133.648 241.211 130.141 240.274C126.634 239.332 122.931 240.875 121.131 244.027L59.4424 352.008H48.085C34.8335 352.008 24.0893 362.752 24.0893 376.003V455.989C24.0893 469.241 34.8335 479.985 48.085 479.985H224.054C237.309 479.985 248.049 469.241 248.049 455.989V439.992C248.049 435.575 244.468 431.993 240.051 431.993C235.634 431.993 232.052 435.575 232.052 439.992V455.989C232.052 460.406 228.471 463.988 224.054 463.988H48.085C43.6678 463.988 40.0864 460.406 40.0864 455.989V376.003C40.0864 371.586 43.6678 368.005 48.085 368.005H64.0822C66.9449 368.012 69.5929 366.485 71.0262 364.005L120.072 278.15V360.006C120.072 364.423 123.654 368.005 128.071 368.005H224.054C228.471 368.005 232.052 371.586 232.052 376.003V392C232.052 396.418 235.634 399.999 240.051 399.999C244.468 399.999 248.049 396.418 248.049 392V376.003C248.049 362.752 237.309 352.008 224.054 352.008V352.008Z" fill="#453F3F"/>
<path d="M152.066 399.999C152.066 395.582 148.485 392 144.068 392H88.0779C83.6607 392 80.0793 395.582 80.0793 399.999C80.0793 404.416 83.6607 407.998 88.0779 407.998H144.068C148.485 407.998 152.066 404.416 152.066 399.999Z" fill="#453F3F"/>
<path d="M216.055 399.999C216.055 395.582 212.474 392 208.056 392H176.062C171.645 392 168.064 395.582 168.064 399.999C168.064 404.416 171.645 407.998 176.062 407.998H208.056C212.474 407.998 216.055 404.416 216.055 399.999Z" fill="#453F3F"/>
<path d="M152.066 439.992H184.061C188.478 439.992 192.059 436.411 192.059 431.993C192.059 427.576 188.478 423.995 184.061 423.995H152.066C147.649 423.995 144.068 427.576 144.068 431.993C144.068 436.411 147.649 439.992 152.066 439.992Z" fill="#453F3F"/>
<path d="M352.031 64.0589H424.018C428.435 64.0589 432.017 60.4775 432.017 56.0603C432.017 51.6432 428.435 48.0618 424.018 48.0618H352.031C347.614 48.0618 344.032 51.6432 344.032 56.0603C344.032 60.4775 347.614 64.0589 352.031 64.0589Z" fill="#453F3F"/>
<path d="M352.031 104.052H424.018C428.435 104.052 432.017 100.47 432.017 96.0531C432.017 91.636 428.435 88.0546 424.018 88.0546H352.031C347.614 88.0546 344.032 91.636 344.032 96.0531C344.032 100.47 347.614 104.052 352.031 104.052Z" fill="#453F3F"/>
<path d="M424.018 128.047H384.025C379.608 128.047 376.027 131.629 376.027 136.046C376.027 140.463 379.608 144.045 384.025 144.045H424.018C428.435 144.045 432.017 140.463 432.017 136.046C432.017 131.629 428.435 128.047 424.018 128.047Z" fill="#453F3F"/>
<path d="M424.018 168.04H384.025C379.608 168.04 376.027 171.622 376.027 176.039C376.027 180.456 379.608 184.038 384.025 184.038H424.018C428.435 184.038 432.017 180.456 432.017 176.039C432.017 171.622 428.435 168.04 424.018 168.04Z" fill="#453F3F"/>
<path d="M368.028 232.029C363.611 232.029 360.029 235.61 360.029 240.028C360.029 244.445 363.611 248.026 368.028 248.026H416.019C424.854 248.026 432.017 240.863 432.017 232.029V216.032C432.017 207.197 424.854 200.035 416.019 200.035H368.028C363.611 200.035 360.029 203.616 360.029 208.033C360.029 212.45 363.611 216.032 368.028 216.032H416.019V232.029H368.028Z" fill="#453F3F"/>
</g>
<defs>
<clipPath id="clip0">
<rect width="480" height="480" fill="white"/>
</clipPath>
</defs>
</svg>
