<svg width="512" height="512" viewBox="0 0 512 512" fill="none" xmlns="http://www.w3.org/2000/svg">
<path d="M128 255.992C132.418 255.992 136 252.41 136 247.992C136 243.574 132.418 239.992 128 239.992C123.582 239.992 120 243.574 120 247.992C120 252.41 123.582 255.992 128 255.992Z" fill="#453F3F"/>
<path d="M232 33.864V110.128L295.552 72L232 33.864ZM248 62.136L264.448 72L248 81.864V62.136Z" fill="#453F3F"/>
<path d="M504 136H405.744C383.168 107.84 353.664 86.936 319.84 75.024C319.896 74.016 320 73.024 320 72C320 36.712 291.288 8 256 8C220.712 8 192 36.712 192 72C192 73.032 192.104 74.04 192.152 75.064C152.136 89.184 117.904 116.192 94.752 152H89.936C44.76 152 8 188.76 8 233.944C8 260.352 20.832 285.28 42.32 300.616L64 316.104V321.96L48.616 326.36C24.696 333.184 8 355.328 8 380.2V504H152V442.968C153.256 441.912 154.488 440.824 155.664 439.648L168.488 426.824C195.424 440.64 225.528 448 256 448C261.328 448 266.672 447.696 272 447.256V453.608L282.568 457.44L277.808 467.624L308.368 498.184L318.552 493.416L322.392 504H365.6L369.44 493.432L379.624 498.2L410.184 467.64L405.424 457.456L416 453.608V410.392L405.432 406.56L410.192 396.376L398.472 384.656C413.632 367.912 425.528 348.904 433.968 328.008H456V296.008H504V136ZM256 24C282.472 24 304 45.528 304 72C304 98.472 282.472 120 256 120C229.528 120 208 98.472 208 72C208 45.528 229.528 24 256 24ZM51.616 287.6C34.328 275.248 24 255.192 24 233.944C24 197.584 53.584 168 89.944 168H152C160.824 168 168 175.176 168 184C168 199.664 144.96 199.984 143.976 199.992H88C74.768 199.992 64 210.76 64 223.992V233.36C54.688 236.664 48 245.56 48 255.992V257.368C48 263.776 50.496 269.808 55.032 274.336L64 283.304V296.448L51.616 287.6ZM124.688 311.992H96V327.992H112V340.68L104 348.688L80 324.68V276.68L66.344 263.024C64.856 261.528 64 259.472 64 257.368V255.992C64 251.576 67.592 247.992 72 247.992H80V223.992C80 219.576 83.592 215.992 88 215.992H139.784C145.056 224.128 158.168 246.864 159.824 274.28L136 282.224V300.68L124.688 311.992ZM53.008 341.752L69.672 336.984L104 371.312L120 355.312L128.968 364.288C131.248 366.568 133.072 369.336 134.272 372.328L134.448 374.24L118.608 390.08C118.408 389.968 118.208 389.856 118.008 389.744L57.576 356.176C52.664 353.44 47.112 352 41.104 352C39.096 352 37.152 352.248 35.248 352.592C40.032 347.592 46.056 343.736 53.008 341.752ZM136 488H24V413.36C24.424 413.616 24.816 413.92 25.248 414.152L89.464 449.184C97.648 453.648 106.88 456 116.192 456C123.08 456 129.752 454.712 136 452.336V488ZM144.344 428.336C136.824 435.856 126.824 440 116.184 440C109.544 440 102.952 438.32 97.12 435.144L32.904 400.112C27.416 397.112 24 391.36 24 385.104C24 375.672 31.672 368 41.496 368C44.392 368 47.264 368.744 49.8 370.152L110.232 403.72C113.504 405.544 116.488 407.792 119.104 410.408L130.344 421.656L141.664 410.344L131.32 399.992L184 347.312L204.688 368L144.344 428.336ZM219.312 360L195.312 336L214.848 316.472C217.688 313.632 221.616 312 225.632 312C231.448 312 236.672 315.224 239.272 320.432L243.056 328H256C260.408 328 264 331.584 264 336V352C264 356.416 260.408 360 256 360H219.312ZM400 442.392L393.416 444.792L389.84 446.488L386.456 454.64L390.952 464.248L376.256 478.952L366.672 474.472L358.024 478.032L354.392 488H333.6L331.208 481.416L329.576 477.872L321.328 474.472L311.744 478.952L297.048 464.248L301.544 454.64L297.968 446.024L288 442.392V421.608L294.584 419.208L298.16 417.512L301.544 409.36L297.048 399.752L311.744 385.048L321.344 389.528L329.984 385.968L333.608 376H354.4L356.792 382.584L358.416 386.12L366.664 389.528L376.264 385.048L390.96 399.752L386.464 409.36L390.04 417.976L400 421.608V442.392ZM387.008 373.184L379.632 365.808L369.448 370.576L365.608 360H322.4L318.56 370.568L308.376 365.8L277.816 396.36L282.576 406.544L272 410.392V431.136C240.704 433.928 208.744 428.296 180.432 414.872L219.312 376H256C269.232 376 280 365.232 280 352V336C280 322.768 269.232 312 256 312H252.904C247.384 302.096 237.064 296 225.624 296C217.28 296 209.432 299.248 203.528 305.16L184 324.688L146.88 361.808C145.08 358.584 142.896 355.576 140.288 352.976L128 340.68V327.992H131.312L152 307.304V293.76L176 285.76V279.992C176 251.688 164.96 227.472 157.368 214.144C159.136 213.696 160.96 213.176 162.808 212.48C176.472 207.368 184 197.248 184 184C184 166.352 169.648 152 152 152H114.056C134.464 124.168 162.592 103.048 194.912 91.08C203.048 117.08 227.352 136 256 136C284.672 136 309 117.048 317.112 91.016C342.912 100.552 365.888 115.856 384.632 136H360V184H328V328H416.408C409.008 344.512 399.16 359.632 387.008 373.184V373.184ZM440 312H344V200H440V312ZM488 280H456V184H376V152H488V280Z" fill="#453F3F"/>
<path d="M360 216H424V232H360V216Z" fill="#453F3F"/>
<path d="M360 248H424V264H360V248Z" fill="#453F3F"/>
<path d="M360 280H424V296H360V280Z" fill="#453F3F"/>
<path d="M344 392C321.944 392 304 409.944 304 432C304 454.056 321.944 472 344 472C366.056 472 384 454.056 384 432C384 409.944 366.056 392 344 392ZM344 456C330.768 456 320 445.232 320 432C320 418.768 330.768 408 344 408C357.232 408 368 418.768 368 432C368 445.232 357.232 456 344 456Z" fill="#453F3F"/>
</svg>
