<svg width="512" height="512" viewBox="0 0 512 512" fill="none" xmlns="http://www.w3.org/2000/svg">
<path d="M472 24H40C33.6371 24.0074 27.5369 26.5384 23.0376 31.0376C18.5384 35.5369 16.0074 41.6371 16 48V464C16.0074 470.363 18.5384 476.463 23.0376 480.962C27.5369 485.462 33.6371 487.993 40 488H472C478.363 487.993 484.463 485.462 488.962 480.962C493.462 476.463 495.993 470.363 496 464V48C495.993 41.6371 493.462 35.5369 488.962 31.0376C484.463 26.5384 478.363 24.0074 472 24V24ZM40 40H472C474.121 40.0024 476.154 40.846 477.654 42.3458C479.154 43.8456 479.998 45.879 480 48V88H32V48C32.0024 45.879 32.846 43.8456 34.3458 42.3458C35.8456 40.846 37.879 40.0024 40 40V40ZM472 472H40C37.879 471.998 35.8456 471.154 34.3458 469.654C32.846 468.154 32.0024 466.121 32 464V104H480V464C479.998 466.121 479.154 468.154 477.654 469.654C476.154 471.154 474.121 471.998 472 472Z" fill="#453F3F"/>
<path d="M120 72C124.418 72 128 68.4183 128 64C128 59.5817 124.418 56 120 56C115.582 56 112 59.5817 112 64C112 68.4183 115.582 72 120 72Z" fill="#453F3F"/>
<path d="M88 72C92.4183 72 96 68.4183 96 64C96 59.5817 92.4183 56 88 56C83.5817 56 80 59.5817 80 64C80 68.4183 83.5817 72 88 72Z" fill="#453F3F"/>
<path d="M56 72C60.4183 72 64 68.4183 64 64C64 59.5817 60.4183 56 56 56C51.5817 56 48 59.5817 48 64C48 68.4183 51.5817 72 56 72Z" fill="#453F3F"/>
<path d="M440 136H72C69.8783 136 67.8434 136.843 66.3431 138.343C64.8429 139.843 64 141.878 64 144V272C64 274.122 64.8429 276.157 66.3431 277.657C67.8434 279.157 69.8783 280 72 280H440C442.122 280 444.157 279.157 445.657 277.657C447.157 276.157 448 274.122 448 272V144C448 141.878 447.157 139.843 445.657 138.343C444.157 136.843 442.122 136 440 136ZM308.849 254.465L328 235.313L356.687 264H316L308.849 254.465ZM296 264H232L264 221.333L296 264ZM212 264H151.365L192 205.95L222.673 249.769L212 264ZM432 264H379.313L333.657 218.343C332.914 217.6 332.032 217.011 331.062 216.609C330.091 216.207 329.051 216 328 216C326.949 216 325.909 216.207 324.938 216.609C323.968 217.011 323.086 217.6 322.343 218.343L299.151 241.535L270.4 203.2C269.655 202.206 268.689 201.4 267.578 200.845C266.467 200.289 265.242 200 264 200C262.758 200 261.533 200.289 260.422 200.845C259.311 201.4 258.345 202.206 257.6 203.2L232.775 236.3L198.554 187.412C197.816 186.358 196.836 185.498 195.695 184.904C194.554 184.31 193.286 183.999 192 183.999C190.714 183.999 189.446 184.31 188.305 184.904C187.164 185.498 186.184 186.358 185.446 187.412L131.835 264H80V152H432V264Z" fill="#453F3F"/>
<path d="M304 200C308.418 200 312 196.418 312 192C312 187.582 308.418 184 304 184C299.582 184 296 187.582 296 192C296 196.418 299.582 200 304 200Z" fill="#453F3F"/>
<path d="M288 312C292.418 312 296 308.418 296 304C296 299.582 292.418 296 288 296C283.582 296 280 299.582 280 304C280 308.418 283.582 312 288 312Z" fill="#453F3F"/>
<path d="M256 312C260.418 312 264 308.418 264 304C264 299.582 260.418 296 256 296C251.582 296 248 299.582 248 304C248 308.418 251.582 312 256 312Z" fill="#453F3F"/>
<path d="M224 312C228.418 312 232 308.418 232 304C232 299.582 228.418 296 224 296C219.582 296 216 299.582 216 304C216 308.418 219.582 312 224 312Z" fill="#453F3F"/>
<path d="M168 328H72C69.8783 328 67.8434 328.843 66.3431 330.343C64.8429 331.843 64 333.878 64 336V400C64 402.122 64.8429 404.157 66.3431 405.657C67.8434 407.157 69.8783 408 72 408H168C170.122 408 172.157 407.157 173.657 405.657C175.157 404.157 176 402.122 176 400V336C176 333.878 175.157 331.843 173.657 330.343C172.157 328.843 170.122 328 168 328ZM160 344V389.755L125 361.755C123.581 360.619 121.818 360 120 360C118.182 360 116.419 360.619 115 361.755L80 389.755V344H160ZM137.194 392H102.806L120 378.245L137.194 392Z" fill="#453F3F"/>
<path d="M304 328H208C205.878 328 203.843 328.843 202.343 330.343C200.843 331.843 200 333.878 200 336V400C200 402.122 200.843 404.157 202.343 405.657C203.843 407.157 205.878 408 208 408H304C306.122 408 308.157 407.157 309.657 405.657C311.157 404.157 312 402.122 312 400V336C312 333.878 311.157 331.843 309.657 330.343C308.157 328.843 306.122 328 304 328ZM296 344V389.755L261 361.755C259.581 360.619 257.818 360 256 360C254.182 360 252.419 360.619 251 361.755L216 389.755V344H296ZM273.194 392H238.806L256 378.245L273.194 392Z" fill="#453F3F"/>
<path d="M440 328H344C341.878 328 339.843 328.843 338.343 330.343C336.843 331.843 336 333.878 336 336V400C336 402.122 336.843 404.157 338.343 405.657C339.843 407.157 341.878 408 344 408H440C442.122 408 444.157 407.157 445.657 405.657C447.157 404.157 448 402.122 448 400V336C448 333.878 447.157 331.843 445.657 330.343C444.157 328.843 442.122 328 440 328ZM432 344V389.755L397 361.755C395.581 360.619 393.818 360 392 360C390.182 360 388.419 360.619 387 361.755L352 389.755V344H432ZM409.194 392H374.806L392 378.245L409.194 392Z" fill="#453F3F"/>
<path d="M152 424H88C85.8783 424 83.8434 424.843 82.3431 426.343C80.8429 427.843 80 429.878 80 432C80 434.122 80.8429 436.157 82.3431 437.657C83.8434 439.157 85.8783 440 88 440H152C154.122 440 156.157 439.157 157.657 437.657C159.157 436.157 160 434.122 160 432C160 429.878 159.157 427.843 157.657 426.343C156.157 424.843 154.122 424 152 424Z" fill="#453F3F"/>
<path d="M288 424H224C221.878 424 219.843 424.843 218.343 426.343C216.843 427.843 216 429.878 216 432C216 434.122 216.843 436.157 218.343 437.657C219.843 439.157 221.878 440 224 440H288C290.122 440 292.157 439.157 293.657 437.657C295.157 436.157 296 434.122 296 432C296 429.878 295.157 427.843 293.657 426.343C292.157 424.843 290.122 424 288 424Z" fill="#453F3F"/>
<path d="M424 424H360C357.878 424 355.843 424.843 354.343 426.343C352.843 427.843 352 429.878 352 432C352 434.122 352.843 436.157 354.343 437.657C355.843 439.157 357.878 440 360 440H424C426.122 440 428.157 439.157 429.657 437.657C431.157 436.157 432 434.122 432 432C432 429.878 431.157 427.843 429.657 426.343C428.157 424.843 426.122 424 424 424Z" fill="#453F3F"/>
</svg>
