<svg width="276" height="158" viewBox="0 0 276 158" fill="none" xmlns="http://www.w3.org/2000/svg">
<rect width="276" height="158" fill="white"/>
<path d="M22.3281 97.625V105.359C22.3229 106.432 21.9844 107.31 21.3125 107.992C20.6458 108.674 19.7396 109.057 18.5938 109.141L18.1953 109.156C16.9505 109.156 15.9583 108.82 15.2188 108.148C14.4792 107.477 14.1042 106.552 14.0938 105.375V97.625H15.5781V105.328C15.5781 106.151 15.8047 106.792 16.2578 107.25C16.7109 107.703 17.3568 107.93 18.1953 107.93C19.0443 107.93 19.6927 107.703 20.1406 107.25C20.5938 106.797 20.8203 106.159 20.8203 105.336V97.625H22.3281ZM29.3842 106.758C29.3842 106.367 29.2358 106.065 28.9389 105.852C28.6472 105.633 28.1342 105.445 27.3998 105.289C26.6707 105.133 26.0899 104.945 25.6576 104.727C25.2306 104.508 24.9128 104.247 24.7045 103.945C24.5014 103.643 24.3998 103.284 24.3998 102.867C24.3998 102.174 24.6915 101.589 25.2748 101.109C25.8634 100.63 26.6134 100.391 27.5248 100.391C28.4832 100.391 29.2592 100.638 29.8529 101.133C30.4519 101.628 30.7514 102.26 30.7514 103.031H29.2983C29.2983 102.635 29.129 102.294 28.7904 102.008C28.4571 101.721 28.0352 101.578 27.5248 101.578C26.9988 101.578 26.5873 101.693 26.2904 101.922C25.9936 102.151 25.8451 102.451 25.8451 102.82C25.8451 103.169 25.9832 103.432 26.2592 103.609C26.5352 103.786 27.0326 103.956 27.7514 104.117C28.4753 104.279 29.0613 104.471 29.5092 104.695C29.9571 104.919 30.2878 105.19 30.5014 105.508C30.7201 105.82 30.8295 106.203 30.8295 106.656C30.8295 107.411 30.5274 108.018 29.9233 108.477C29.3191 108.93 28.5352 109.156 27.5717 109.156C26.8946 109.156 26.2957 109.036 25.7748 108.797C25.254 108.557 24.8451 108.224 24.5483 107.797C24.2566 107.365 24.1108 106.898 24.1108 106.398H25.5561C25.5821 106.883 25.7748 107.268 26.1342 107.555C26.4988 107.836 26.9779 107.977 27.5717 107.977C28.1186 107.977 28.5561 107.867 28.8842 107.648C29.2175 107.424 29.3842 107.128 29.3842 106.758ZM37.9246 108.164C37.3621 108.826 36.5366 109.156 35.4481 109.156C34.547 109.156 33.8595 108.896 33.3856 108.375C32.9168 107.849 32.6799 107.073 32.6746 106.047V100.547H34.12V106.008C34.12 107.289 34.6408 107.93 35.6825 107.93C36.7866 107.93 37.521 107.518 37.8856 106.695V100.547H39.3309V109H37.9559L37.9246 108.164ZM46.7463 109C46.663 108.833 46.5953 108.536 46.5432 108.109C45.8713 108.807 45.0693 109.156 44.137 109.156C43.3036 109.156 42.6187 108.922 42.0823 108.453C41.551 107.979 41.2854 107.38 41.2854 106.656C41.2854 105.776 41.6187 105.094 42.2854 104.609C42.9573 104.12 43.9 103.875 45.1135 103.875H46.5198V103.211C46.5198 102.706 46.3687 102.305 46.0667 102.008C45.7646 101.706 45.3193 101.555 44.7307 101.555C44.2151 101.555 43.7828 101.685 43.4338 101.945C43.0849 102.206 42.9104 102.521 42.9104 102.891H41.4573C41.4573 102.469 41.6057 102.062 41.9026 101.672C42.2047 101.276 42.6109 100.964 43.1213 100.734C43.637 100.505 44.2021 100.391 44.8167 100.391C45.7906 100.391 46.5536 100.635 47.1057 101.125C47.6578 101.609 47.9443 102.279 47.9651 103.133V107.023C47.9651 107.799 48.064 108.417 48.262 108.875V109H46.7463ZM44.3479 107.898C44.801 107.898 45.2307 107.781 45.637 107.547C46.0432 107.312 46.3375 107.008 46.5198 106.633V104.898H45.387C43.6161 104.898 42.7307 105.417 42.7307 106.453C42.7307 106.906 42.8818 107.26 43.1838 107.516C43.4859 107.771 43.8739 107.898 44.3479 107.898ZM54.3102 101.844C54.0915 101.807 53.8545 101.789 53.5993 101.789C52.6514 101.789 52.0081 102.193 51.6696 103V109H50.2243V100.547H51.6305L51.654 101.523C52.1279 100.768 52.7998 100.391 53.6696 100.391C53.9508 100.391 54.1644 100.427 54.3102 100.5V101.844ZM57.21 109H55.7647V100.547H57.21V109ZM55.6475 98.3047C55.6475 98.0703 55.7179 97.8724 55.8585 97.7109C56.0043 97.5495 56.2179 97.4688 56.4991 97.4688C56.7804 97.4688 56.9939 97.5495 57.1397 97.7109C57.2856 97.8724 57.3585 98.0703 57.3585 98.3047C57.3585 98.5391 57.2856 98.7344 57.1397 98.8906C56.9939 99.0469 56.7804 99.125 56.4991 99.125C56.2179 99.125 56.0043 99.0469 55.8585 98.8906C55.7179 98.7344 55.6475 98.5391 55.6475 98.3047ZM59.1411 104.695C59.1411 103.867 59.3026 103.122 59.6255 102.461C59.9536 101.799 60.4067 101.289 60.9849 100.93C61.5682 100.57 62.2323 100.391 62.9771 100.391C64.1281 100.391 65.0578 100.789 65.7661 101.586C66.4797 102.383 66.8364 103.443 66.8364 104.766V104.867C66.8364 105.69 66.6776 106.43 66.3599 107.086C66.0474 107.737 65.5968 108.245 65.0083 108.609C64.425 108.974 63.7531 109.156 62.9927 109.156C61.8468 109.156 60.9172 108.758 60.2036 107.961C59.4953 107.164 59.1411 106.109 59.1411 104.797V104.695ZM60.5942 104.867C60.5942 105.805 60.8104 106.557 61.2427 107.125C61.6802 107.693 62.2635 107.977 62.9927 107.977C63.7271 107.977 64.3104 107.69 64.7427 107.117C65.175 106.539 65.3911 105.732 65.3911 104.695C65.3911 103.768 65.1698 103.018 64.7271 102.445C64.2896 101.867 63.7062 101.578 62.9771 101.578C62.2635 101.578 61.688 101.862 61.2505 102.43C60.813 102.997 60.5942 103.81 60.5942 104.867ZM73.5644 106.758C73.5644 106.367 73.4159 106.065 73.1191 105.852C72.8274 105.633 72.3144 105.445 71.58 105.289C70.8508 105.133 70.2701 104.945 69.8378 104.727C69.4107 104.508 69.093 104.247 68.8847 103.945C68.6816 103.643 68.58 103.284 68.58 102.867C68.58 102.174 68.8717 101.589 69.455 101.109C70.0435 100.63 70.7935 100.391 71.705 100.391C72.6633 100.391 73.4394 100.638 74.0331 101.133C74.6321 101.628 74.9316 102.26 74.9316 103.031H73.4784C73.4784 102.635 73.3092 102.294 72.9706 102.008C72.6373 101.721 72.2154 101.578 71.705 101.578C71.179 101.578 70.7675 101.693 70.4706 101.922C70.1738 102.151 70.0253 102.451 70.0253 102.82C70.0253 103.169 70.1633 103.432 70.4394 103.609C70.7154 103.786 71.2128 103.956 71.9316 104.117C72.6555 104.279 73.2415 104.471 73.6894 104.695C74.1373 104.919 74.468 105.19 74.6816 105.508C74.9003 105.82 75.0097 106.203 75.0097 106.656C75.0097 107.411 74.7076 108.018 74.1034 108.477C73.4993 108.93 72.7154 109.156 71.7519 109.156C71.0748 109.156 70.4758 109.036 69.955 108.797C69.4342 108.557 69.0253 108.224 68.7284 107.797C68.4368 107.365 68.2909 106.898 68.2909 106.398H69.7363C69.7623 106.883 69.955 107.268 70.3144 107.555C70.679 107.836 71.1581 107.977 71.7519 107.977C72.2988 107.977 72.7363 107.867 73.0644 107.648C73.3977 107.424 73.5644 107.128 73.5644 106.758ZM80.4656 104.695C80.4656 103.867 80.627 103.122 80.95 102.461C81.2781 101.799 81.7312 101.289 82.3093 100.93C82.8927 100.57 83.5567 100.391 84.3015 100.391C85.4526 100.391 86.3823 100.789 87.0906 101.586C87.8041 102.383 88.1609 103.443 88.1609 104.766V104.867C88.1609 105.69 88.002 106.43 87.6843 107.086C87.3718 107.737 86.9213 108.245 86.3328 108.609C85.7494 108.974 85.0776 109.156 84.3171 109.156C83.1713 109.156 82.2416 108.758 81.5281 107.961C80.8198 107.164 80.4656 106.109 80.4656 104.797V104.695ZM81.9187 104.867C81.9187 105.805 82.1349 106.557 82.5671 107.125C83.0046 107.693 83.588 107.977 84.3171 107.977C85.0515 107.977 85.6349 107.69 86.0671 107.117C86.4994 106.539 86.7156 105.732 86.7156 104.695C86.7156 103.768 86.4942 103.018 86.0515 102.445C85.614 101.867 85.0307 101.578 84.3015 101.578C83.588 101.578 83.0125 101.862 82.575 102.43C82.1375 102.997 81.9187 103.81 81.9187 104.867ZM21.2344 123.867C21.2344 125.154 20.9401 126.19 20.3516 126.977C19.763 127.763 18.9661 128.156 17.9609 128.156C16.9349 128.156 16.1276 127.831 15.5391 127.18V131.25H14.0938V119.547H15.4141L15.4844 120.484C16.0729 119.755 16.8906 119.391 17.9375 119.391C18.9531 119.391 19.7552 119.773 20.3438 120.539C20.9375 121.305 21.2344 122.37 21.2344 123.734V123.867ZM19.7891 123.703C19.7891 122.75 19.5859 121.997 19.1797 121.445C18.7734 120.893 18.2161 120.617 17.5078 120.617C16.6328 120.617 15.9766 121.005 15.5391 121.781V125.82C15.9714 126.591 16.6328 126.977 17.5234 126.977C18.2161 126.977 18.7656 126.703 19.1719 126.156C19.5833 125.604 19.7891 124.786 19.7891 123.703ZM27.1576 120.844C26.9389 120.807 26.7019 120.789 26.4467 120.789C25.4988 120.789 24.8556 121.193 24.517 122V128H23.0717V119.547H24.4779L24.5014 120.523C24.9753 119.768 25.6472 119.391 26.517 119.391C26.7983 119.391 27.0118 119.427 27.1576 119.5V120.844ZM27.9481 123.695C27.9481 122.867 28.1095 122.122 28.4325 121.461C28.7606 120.799 29.2137 120.289 29.7918 119.93C30.3752 119.57 31.0392 119.391 31.784 119.391C32.9351 119.391 33.8647 119.789 34.5731 120.586C35.2866 121.383 35.6434 122.443 35.6434 123.766V123.867C35.6434 124.69 35.4845 125.43 35.1668 126.086C34.8543 126.737 34.4038 127.245 33.8153 127.609C33.2319 127.974 32.5601 128.156 31.7996 128.156C30.6538 128.156 29.7241 127.758 29.0106 126.961C28.3022 126.164 27.9481 125.109 27.9481 123.797V123.695ZM29.4012 123.867C29.4012 124.805 29.6174 125.557 30.0496 126.125C30.4871 126.693 31.0705 126.977 31.7996 126.977C32.534 126.977 33.1174 126.69 33.5496 126.117C33.9819 125.539 34.1981 124.732 34.1981 123.695C34.1981 122.768 33.9767 122.018 33.534 121.445C33.0965 120.867 32.5132 120.578 31.784 120.578C31.0705 120.578 30.495 120.862 30.0575 121.43C29.62 121.997 29.4012 122.81 29.4012 123.867ZM40.8401 126.977C41.3557 126.977 41.8062 126.82 42.1917 126.508C42.5771 126.195 42.7906 125.805 42.8323 125.336H44.1995C44.1734 125.82 44.0068 126.281 43.6995 126.719C43.3922 127.156 42.9807 127.505 42.4651 127.766C41.9547 128.026 41.413 128.156 40.8401 128.156C39.689 128.156 38.7724 127.773 38.0901 127.008C37.413 126.237 37.0745 125.185 37.0745 123.852V123.609C37.0745 122.786 37.2255 122.055 37.5276 121.414C37.8297 120.773 38.262 120.276 38.8245 119.922C39.3922 119.568 40.0614 119.391 40.8323 119.391C41.7802 119.391 42.5667 119.674 43.1917 120.242C43.8219 120.81 44.1578 121.547 44.1995 122.453H42.8323C42.7906 121.906 42.5823 121.458 42.2073 121.109C41.8375 120.755 41.3792 120.578 40.8323 120.578C40.0979 120.578 39.5276 120.844 39.1213 121.375C38.7203 121.901 38.5198 122.664 38.5198 123.664V123.938C38.5198 124.911 38.7203 125.661 39.1213 126.188C39.5224 126.714 40.0953 126.977 40.8401 126.977ZM49.3258 128.156C48.18 128.156 47.2477 127.781 46.529 127.031C45.8102 126.276 45.4508 125.268 45.4508 124.008V123.742C45.4508 122.904 45.6097 122.156 45.9274 121.5C46.2503 120.839 46.6982 120.323 47.2712 119.953C47.8493 119.578 48.4743 119.391 49.1462 119.391C50.2451 119.391 51.0993 119.753 51.7087 120.477C52.318 121.201 52.6227 122.237 52.6227 123.586V124.188H46.8962C46.917 125.021 47.1592 125.695 47.6227 126.211C48.0915 126.721 48.6852 126.977 49.404 126.977C49.9144 126.977 50.3467 126.872 50.7008 126.664C51.055 126.456 51.3649 126.18 51.6305 125.836L52.5133 126.523C51.805 127.612 50.7425 128.156 49.3258 128.156ZM49.1462 120.578C48.5628 120.578 48.0732 120.792 47.6774 121.219C47.2816 121.641 47.0368 122.234 46.943 123H51.1774V122.891C51.1357 122.156 50.9378 121.589 50.5837 121.188C50.2295 120.781 49.7503 120.578 49.1462 120.578ZM59.2179 125.758C59.2179 125.367 59.0694 125.065 58.7725 124.852C58.4809 124.633 57.9679 124.445 57.2335 124.289C56.5043 124.133 55.9236 123.945 55.4913 123.727C55.0642 123.508 54.7465 123.247 54.5382 122.945C54.335 122.643 54.2335 122.284 54.2335 121.867C54.2335 121.174 54.5251 120.589 55.1085 120.109C55.697 119.63 56.447 119.391 57.3585 119.391C58.3168 119.391 59.0929 119.638 59.6866 120.133C60.2856 120.628 60.585 121.26 60.585 122.031H59.1319C59.1319 121.635 58.9626 121.294 58.6241 121.008C58.2908 120.721 57.8689 120.578 57.3585 120.578C56.8324 120.578 56.421 120.693 56.1241 120.922C55.8272 121.151 55.6788 121.451 55.6788 121.82C55.6788 122.169 55.8168 122.432 56.0929 122.609C56.3689 122.786 56.8663 122.956 57.585 123.117C58.309 123.279 58.8949 123.471 59.3429 123.695C59.7908 123.919 60.1215 124.19 60.335 124.508C60.5538 124.82 60.6632 125.203 60.6632 125.656C60.6632 126.411 60.3611 127.018 59.7569 127.477C59.1528 127.93 58.3689 128.156 57.4054 128.156C56.7283 128.156 56.1293 128.036 55.6085 127.797C55.0876 127.557 54.6788 127.224 54.3819 126.797C54.0903 126.365 53.9444 125.898 53.9444 125.398H55.3897C55.4158 125.883 55.6085 126.268 55.9679 126.555C56.3324 126.836 56.8116 126.977 57.4054 126.977C57.9522 126.977 58.3897 126.867 58.7179 126.648C59.0512 126.424 59.2179 126.128 59.2179 125.758ZM62.1567 123.695C62.1567 122.867 62.3182 122.122 62.6411 121.461C62.9692 120.799 63.4224 120.289 64.0005 119.93C64.5838 119.57 65.2479 119.391 65.9927 119.391C67.1437 119.391 68.0734 119.789 68.7817 120.586C69.4953 121.383 69.8521 122.443 69.8521 123.766V123.867C69.8521 124.69 69.6932 125.43 69.3755 126.086C69.063 126.737 68.6125 127.245 68.0239 127.609C67.4406 127.974 66.7687 128.156 66.0083 128.156C64.8625 128.156 63.9328 127.758 63.2192 126.961C62.5109 126.164 62.1567 125.109 62.1567 123.797V123.695ZM63.6099 123.867C63.6099 124.805 63.826 125.557 64.2583 126.125C64.6958 126.693 65.2791 126.977 66.0083 126.977C66.7427 126.977 67.326 126.69 67.7583 126.117C68.1906 125.539 68.4067 124.732 68.4067 123.695C68.4067 122.768 68.1854 122.018 67.7427 121.445C67.3052 120.867 66.7218 120.578 65.9927 120.578C65.2791 120.578 64.7036 120.862 64.2661 121.43C63.8286 121.997 63.6099 122.81 63.6099 123.867ZM76.58 125.758C76.58 125.367 76.4316 125.065 76.1347 124.852C75.843 124.633 75.33 124.445 74.5956 124.289C73.8665 124.133 73.2857 123.945 72.8534 123.727C72.4264 123.508 72.1086 123.247 71.9003 122.945C71.6972 122.643 71.5956 122.284 71.5956 121.867C71.5956 121.174 71.8873 120.589 72.4706 120.109C73.0592 119.63 73.8092 119.391 74.7206 119.391C75.679 119.391 76.455 119.638 77.0488 120.133C77.6477 120.628 77.9472 121.26 77.9472 122.031H76.4941C76.4941 121.635 76.3248 121.294 75.9863 121.008C75.6529 120.721 75.231 120.578 74.7206 120.578C74.1946 120.578 73.7831 120.693 73.4863 120.922C73.1894 121.151 73.0409 121.451 73.0409 121.82C73.0409 122.169 73.179 122.432 73.455 122.609C73.731 122.786 74.2284 122.956 74.9472 123.117C75.6711 123.279 76.2571 123.471 76.705 123.695C77.1529 123.919 77.4836 124.19 77.6972 124.508C77.9159 124.82 78.0253 125.203 78.0253 125.656C78.0253 126.411 77.7232 127.018 77.1191 127.477C76.5149 127.93 75.731 128.156 74.7675 128.156C74.0904 128.156 73.4915 128.036 72.9706 127.797C72.4498 127.557 72.0409 127.224 71.7441 126.797C71.4524 126.365 71.3066 125.898 71.3066 125.398H72.7519C72.7779 125.883 72.9706 126.268 73.33 126.555C73.6946 126.836 74.1738 126.977 74.7675 126.977C75.3144 126.977 75.7519 126.867 76.08 126.648C76.4133 126.424 76.58 126.128 76.58 125.758ZM20.75 141.742H15.8203V145.773H21.5469V147H14.3203V135.625H21.4688V136.859H15.8203V140.516H20.75V141.742ZM26.017 141.633L27.892 138.547H29.5795L26.8139 142.727L29.6654 147H27.9936L26.0404 143.836L24.0873 147H22.4076L25.2592 142.727L22.4936 138.547H24.1654L26.017 141.633ZM33.0731 136.5V138.547H34.6512V139.664H33.0731V144.906C33.0731 145.245 33.1434 145.5 33.284 145.672C33.4246 145.839 33.6642 145.922 34.0028 145.922C34.1694 145.922 34.3986 145.891 34.6903 145.828V147C34.3101 147.104 33.9403 147.156 33.5809 147.156C32.9351 147.156 32.4481 146.961 32.12 146.57C31.7918 146.18 31.6278 145.625 31.6278 144.906V139.664H30.0887V138.547H31.6278V136.5H33.0731ZM39.8479 147.156C38.7021 147.156 37.7698 146.781 37.051 146.031C36.3323 145.276 35.9729 144.268 35.9729 143.008V142.742C35.9729 141.904 36.1318 141.156 36.4495 140.5C36.7724 139.839 37.2203 139.323 37.7932 138.953C38.3713 138.578 38.9963 138.391 39.6682 138.391C40.7672 138.391 41.6213 138.753 42.2307 139.477C42.8401 140.201 43.1448 141.237 43.1448 142.586V143.188H37.4182C37.439 144.021 37.6812 144.695 38.1448 145.211C38.6135 145.721 39.2073 145.977 39.926 145.977C40.4364 145.977 40.8687 145.872 41.2229 145.664C41.5771 145.456 41.887 145.18 42.1526 144.836L43.0354 145.523C42.3271 146.612 41.2646 147.156 39.8479 147.156ZM39.6682 139.578C39.0849 139.578 38.5953 139.792 38.1995 140.219C37.8036 140.641 37.5588 141.234 37.4651 142H41.6995V141.891C41.6578 141.156 41.4599 140.589 41.1057 140.188C40.7515 139.781 40.2724 139.578 39.6682 139.578ZM48.904 139.844C48.6852 139.807 48.4482 139.789 48.193 139.789C47.2451 139.789 46.6019 140.193 46.2633 141V147H44.818V138.547H46.2243L46.2477 139.523C46.7217 138.768 47.3936 138.391 48.2633 138.391C48.5446 138.391 48.7581 138.427 48.904 138.5V139.844ZM51.6007 138.547L51.6475 139.609C52.2934 138.797 53.1371 138.391 54.1788 138.391C55.9653 138.391 56.8663 139.398 56.8819 141.414V147H55.4366V141.406C55.4314 140.797 55.2908 140.346 55.0147 140.055C54.7439 139.763 54.3194 139.617 53.7413 139.617C53.2725 139.617 52.8611 139.742 52.5069 139.992C52.1528 140.242 51.8767 140.57 51.6788 140.977V147H50.2335V138.547H51.6007ZM58.6724 142.695C58.6724 141.867 58.8338 141.122 59.1567 140.461C59.4849 139.799 59.938 139.289 60.5161 138.93C61.0995 138.57 61.7635 138.391 62.5083 138.391C63.6593 138.391 64.589 138.789 65.2974 139.586C66.0109 140.383 66.3677 141.443 66.3677 142.766V142.867C66.3677 143.69 66.2088 144.43 65.8911 145.086C65.5786 145.737 65.1281 146.245 64.5396 146.609C63.9562 146.974 63.2843 147.156 62.5239 147.156C61.3781 147.156 60.4484 146.758 59.7349 145.961C59.0265 145.164 58.6724 144.109 58.6724 142.797V142.695ZM60.1255 142.867C60.1255 143.805 60.3416 144.557 60.7739 145.125C61.2114 145.693 61.7948 145.977 62.5239 145.977C63.2583 145.977 63.8416 145.69 64.2739 145.117C64.7062 144.539 64.9224 143.732 64.9224 142.695C64.9224 141.768 64.701 141.018 64.2583 140.445C63.8208 139.867 63.2375 139.578 62.5083 139.578C61.7948 139.578 61.2192 139.862 60.7817 140.43C60.3442 140.997 60.1255 141.81 60.1255 142.867ZM73.0956 144.758C73.0956 144.367 72.9472 144.065 72.6503 143.852C72.3586 143.633 71.8456 143.445 71.1113 143.289C70.3821 143.133 69.8014 142.945 69.3691 142.727C68.942 142.508 68.6243 142.247 68.4159 141.945C68.2128 141.643 68.1113 141.284 68.1113 140.867C68.1113 140.174 68.4029 139.589 68.9863 139.109C69.5748 138.63 70.3248 138.391 71.2363 138.391C72.1946 138.391 72.9706 138.638 73.5644 139.133C74.1633 139.628 74.4628 140.26 74.4628 141.031H73.0097C73.0097 140.635 72.8404 140.294 72.5019 140.008C72.1685 139.721 71.7467 139.578 71.2363 139.578C70.7102 139.578 70.2988 139.693 70.0019 139.922C69.705 140.151 69.5566 140.451 69.5566 140.82C69.5566 141.169 69.6946 141.432 69.9706 141.609C70.2467 141.786 70.7441 141.956 71.4628 142.117C72.1868 142.279 72.7727 142.471 73.2206 142.695C73.6685 142.919 73.9993 143.19 74.2128 143.508C74.4316 143.82 74.5409 144.203 74.5409 144.656C74.5409 145.411 74.2389 146.018 73.6347 146.477C73.0305 146.93 72.2467 147.156 71.2831 147.156C70.606 147.156 70.0071 147.036 69.4863 146.797C68.9654 146.557 68.5566 146.224 68.2597 145.797C67.968 145.365 67.8222 144.898 67.8222 144.398H69.2675C69.2935 144.883 69.4863 145.268 69.8456 145.555C70.2102 145.836 70.6894 145.977 71.2831 145.977C71.83 145.977 72.2675 145.867 72.5956 145.648C72.929 145.424 73.0956 145.128 73.0956 144.758Z" fill="black"/>
<path d="M152.328 97.625V105.359C152.323 106.432 151.984 107.31 151.312 107.992C150.646 108.674 149.74 109.057 148.594 109.141L148.195 109.156C146.951 109.156 145.958 108.82 145.219 108.148C144.479 107.477 144.104 106.552 144.094 105.375V97.625H145.578V105.328C145.578 106.151 145.805 106.792 146.258 107.25C146.711 107.703 147.357 107.93 148.195 107.93C149.044 107.93 149.693 107.703 150.141 107.25C150.594 106.797 150.82 106.159 150.82 105.336V97.625H152.328ZM159.384 106.758C159.384 106.367 159.236 106.065 158.939 105.852C158.647 105.633 158.134 105.445 157.4 105.289C156.671 105.133 156.09 104.945 155.658 104.727C155.231 104.508 154.913 104.247 154.705 103.945C154.501 103.643 154.4 103.284 154.4 102.867C154.4 102.174 154.691 101.589 155.275 101.109C155.863 100.63 156.613 100.391 157.525 100.391C158.483 100.391 159.259 100.638 159.853 101.133C160.452 101.628 160.751 102.26 160.751 103.031H159.298C159.298 102.635 159.129 102.294 158.79 102.008C158.457 101.721 158.035 101.578 157.525 101.578C156.999 101.578 156.587 101.693 156.29 101.922C155.994 102.151 155.845 102.451 155.845 102.82C155.845 103.169 155.983 103.432 156.259 103.609C156.535 103.786 157.033 103.956 157.751 104.117C158.475 104.279 159.061 104.471 159.509 104.695C159.957 104.919 160.288 105.19 160.501 105.508C160.72 105.82 160.83 106.203 160.83 106.656C160.83 107.411 160.527 108.018 159.923 108.477C159.319 108.93 158.535 109.156 157.572 109.156C156.895 109.156 156.296 109.036 155.775 108.797C155.254 108.557 154.845 108.224 154.548 107.797C154.257 107.365 154.111 106.898 154.111 106.398H155.556C155.582 106.883 155.775 107.268 156.134 107.555C156.499 107.836 156.978 107.977 157.572 107.977C158.119 107.977 158.556 107.867 158.884 107.648C159.218 107.424 159.384 107.128 159.384 106.758ZM167.925 108.164C167.362 108.826 166.537 109.156 165.448 109.156C164.547 109.156 163.86 108.896 163.386 108.375C162.917 107.849 162.68 107.073 162.675 106.047V100.547H164.12V106.008C164.12 107.289 164.641 107.93 165.682 107.93C166.787 107.93 167.521 107.518 167.886 106.695V100.547H169.331V109H167.956L167.925 108.164ZM176.746 109C176.663 108.833 176.595 108.536 176.543 108.109C175.871 108.807 175.069 109.156 174.137 109.156C173.304 109.156 172.619 108.922 172.082 108.453C171.551 107.979 171.285 107.38 171.285 106.656C171.285 105.776 171.619 105.094 172.285 104.609C172.957 104.12 173.9 103.875 175.114 103.875H176.52V103.211C176.52 102.706 176.369 102.305 176.067 102.008C175.765 101.706 175.319 101.555 174.731 101.555C174.215 101.555 173.783 101.685 173.434 101.945C173.085 102.206 172.91 102.521 172.91 102.891H171.457C171.457 102.469 171.606 102.062 171.903 101.672C172.205 101.276 172.611 100.964 173.121 100.734C173.637 100.505 174.202 100.391 174.817 100.391C175.791 100.391 176.554 100.635 177.106 101.125C177.658 101.609 177.944 102.279 177.965 103.133V107.023C177.965 107.799 178.064 108.417 178.262 108.875V109H176.746ZM174.348 107.898C174.801 107.898 175.231 107.781 175.637 107.547C176.043 107.312 176.337 107.008 176.52 106.633V104.898H175.387C173.616 104.898 172.731 105.417 172.731 106.453C172.731 106.906 172.882 107.26 173.184 107.516C173.486 107.771 173.874 107.898 174.348 107.898ZM184.31 101.844C184.091 101.807 183.854 101.789 183.599 101.789C182.651 101.789 182.008 102.193 181.67 103V109H180.224V100.547H181.631L181.654 101.523C182.128 100.768 182.8 100.391 183.67 100.391C183.951 100.391 184.164 100.427 184.31 100.5V101.844ZM187.21 109H185.765V100.547H187.21V109ZM185.648 98.3047C185.648 98.0703 185.718 97.8724 185.858 97.7109C186.004 97.5495 186.218 97.4688 186.499 97.4688C186.78 97.4688 186.994 97.5495 187.14 97.7109C187.286 97.8724 187.358 98.0703 187.358 98.3047C187.358 98.5391 187.286 98.7344 187.14 98.8906C186.994 99.0469 186.78 99.125 186.499 99.125C186.218 99.125 186.004 99.0469 185.858 98.8906C185.718 98.7344 185.648 98.5391 185.648 98.3047ZM189.141 104.695C189.141 103.867 189.303 103.122 189.625 102.461C189.954 101.799 190.407 101.289 190.985 100.93C191.568 100.57 192.232 100.391 192.977 100.391C194.128 100.391 195.058 100.789 195.766 101.586C196.48 102.383 196.836 103.443 196.836 104.766V104.867C196.836 105.69 196.678 106.43 196.36 107.086C196.047 107.737 195.597 108.245 195.008 108.609C194.425 108.974 193.753 109.156 192.993 109.156C191.847 109.156 190.917 108.758 190.204 107.961C189.495 107.164 189.141 106.109 189.141 104.797V104.695ZM190.594 104.867C190.594 105.805 190.81 106.557 191.243 107.125C191.68 107.693 192.264 107.977 192.993 107.977C193.727 107.977 194.31 107.69 194.743 107.117C195.175 106.539 195.391 105.732 195.391 104.695C195.391 103.768 195.17 103.018 194.727 102.445C194.29 101.867 193.706 101.578 192.977 101.578C192.264 101.578 191.688 101.862 191.25 102.43C190.813 102.997 190.594 103.81 190.594 104.867ZM203.564 106.758C203.564 106.367 203.416 106.065 203.119 105.852C202.827 105.633 202.314 105.445 201.58 105.289C200.851 105.133 200.27 104.945 199.838 104.727C199.411 104.508 199.093 104.247 198.885 103.945C198.682 103.643 198.58 103.284 198.58 102.867C198.58 102.174 198.872 101.589 199.455 101.109C200.044 100.63 200.794 100.391 201.705 100.391C202.663 100.391 203.439 100.638 204.033 101.133C204.632 101.628 204.932 102.26 204.932 103.031H203.478C203.478 102.635 203.309 102.294 202.971 102.008C202.637 101.721 202.215 101.578 201.705 101.578C201.179 101.578 200.768 101.693 200.471 101.922C200.174 102.151 200.025 102.451 200.025 102.82C200.025 103.169 200.163 103.432 200.439 103.609C200.715 103.786 201.213 103.956 201.932 104.117C202.656 104.279 203.241 104.471 203.689 104.695C204.137 104.919 204.468 105.19 204.682 105.508C204.9 105.82 205.01 106.203 205.01 106.656C205.01 107.411 204.708 108.018 204.103 108.477C203.499 108.93 202.715 109.156 201.752 109.156C201.075 109.156 200.476 109.036 199.955 108.797C199.434 108.557 199.025 108.224 198.728 107.797C198.437 107.365 198.291 106.898 198.291 106.398H199.736C199.762 106.883 199.955 107.268 200.314 107.555C200.679 107.836 201.158 107.977 201.752 107.977C202.299 107.977 202.736 107.867 203.064 107.648C203.398 107.424 203.564 107.128 203.564 106.758ZM210.466 104.695C210.466 103.867 210.627 103.122 210.95 102.461C211.278 101.799 211.731 101.289 212.309 100.93C212.893 100.57 213.557 100.391 214.302 100.391C215.453 100.391 216.382 100.789 217.091 101.586C217.804 102.383 218.161 103.443 218.161 104.766V104.867C218.161 105.69 218.002 106.43 217.684 107.086C217.372 107.737 216.921 108.245 216.333 108.609C215.749 108.974 215.078 109.156 214.317 109.156C213.171 109.156 212.242 108.758 211.528 107.961C210.82 107.164 210.466 106.109 210.466 104.797V104.695ZM211.919 104.867C211.919 105.805 212.135 106.557 212.567 107.125C213.005 107.693 213.588 107.977 214.317 107.977C215.052 107.977 215.635 107.69 216.067 107.117C216.499 106.539 216.716 105.732 216.716 104.695C216.716 103.768 216.494 103.018 216.052 102.445C215.614 101.867 215.031 101.578 214.302 101.578C213.588 101.578 213.012 101.862 212.575 102.43C212.137 102.997 211.919 103.81 211.919 104.867ZM151.234 123.867C151.234 125.154 150.94 126.19 150.352 126.977C149.763 127.763 148.966 128.156 147.961 128.156C146.935 128.156 146.128 127.831 145.539 127.18V131.25H144.094V119.547H145.414L145.484 120.484C146.073 119.755 146.891 119.391 147.938 119.391C148.953 119.391 149.755 119.773 150.344 120.539C150.938 121.305 151.234 122.37 151.234 123.734V123.867ZM149.789 123.703C149.789 122.75 149.586 121.997 149.18 121.445C148.773 120.893 148.216 120.617 147.508 120.617C146.633 120.617 145.977 121.005 145.539 121.781V125.82C145.971 126.591 146.633 126.977 147.523 126.977C148.216 126.977 148.766 126.703 149.172 126.156C149.583 125.604 149.789 124.786 149.789 123.703ZM157.158 120.844C156.939 120.807 156.702 120.789 156.447 120.789C155.499 120.789 154.856 121.193 154.517 122V128H153.072V119.547H154.478L154.501 120.523C154.975 119.768 155.647 119.391 156.517 119.391C156.798 119.391 157.012 119.427 157.158 119.5V120.844ZM157.948 123.695C157.948 122.867 158.11 122.122 158.432 121.461C158.761 120.799 159.214 120.289 159.792 119.93C160.375 119.57 161.039 119.391 161.784 119.391C162.935 119.391 163.865 119.789 164.573 120.586C165.287 121.383 165.643 122.443 165.643 123.766V123.867C165.643 124.69 165.485 125.43 165.167 126.086C164.854 126.737 164.404 127.245 163.815 127.609C163.232 127.974 162.56 128.156 161.8 128.156C160.654 128.156 159.724 127.758 159.011 126.961C158.302 126.164 157.948 125.109 157.948 123.797V123.695ZM159.401 123.867C159.401 124.805 159.617 125.557 160.05 126.125C160.487 126.693 161.07 126.977 161.8 126.977C162.534 126.977 163.117 126.69 163.55 126.117C163.982 125.539 164.198 124.732 164.198 123.695C164.198 122.768 163.977 122.018 163.534 121.445C163.097 120.867 162.513 120.578 161.784 120.578C161.07 120.578 160.495 120.862 160.057 121.43C159.62 121.997 159.401 122.81 159.401 123.867ZM170.84 126.977C171.356 126.977 171.806 126.82 172.192 126.508C172.577 126.195 172.791 125.805 172.832 125.336H174.199C174.173 125.82 174.007 126.281 173.699 126.719C173.392 127.156 172.981 127.505 172.465 127.766C171.955 128.026 171.413 128.156 170.84 128.156C169.689 128.156 168.772 127.773 168.09 127.008C167.413 126.237 167.074 125.185 167.074 123.852V123.609C167.074 122.786 167.226 122.055 167.528 121.414C167.83 120.773 168.262 120.276 168.824 119.922C169.392 119.568 170.061 119.391 170.832 119.391C171.78 119.391 172.567 119.674 173.192 120.242C173.822 120.81 174.158 121.547 174.199 122.453H172.832C172.791 121.906 172.582 121.458 172.207 121.109C171.837 120.755 171.379 120.578 170.832 120.578C170.098 120.578 169.528 120.844 169.121 121.375C168.72 121.901 168.52 122.664 168.52 123.664V123.938C168.52 124.911 168.72 125.661 169.121 126.188C169.522 126.714 170.095 126.977 170.84 126.977ZM179.326 128.156C178.18 128.156 177.248 127.781 176.529 127.031C175.81 126.276 175.451 125.268 175.451 124.008V123.742C175.451 122.904 175.61 122.156 175.927 121.5C176.25 120.839 176.698 120.323 177.271 119.953C177.849 119.578 178.474 119.391 179.146 119.391C180.245 119.391 181.099 119.753 181.709 120.477C182.318 121.201 182.623 122.237 182.623 123.586V124.188H176.896C176.917 125.021 177.159 125.695 177.623 126.211C178.091 126.721 178.685 126.977 179.404 126.977C179.914 126.977 180.347 126.872 180.701 126.664C181.055 126.456 181.365 126.18 181.631 125.836L182.513 126.523C181.805 127.612 180.743 128.156 179.326 128.156ZM179.146 120.578C178.563 120.578 178.073 120.792 177.677 121.219C177.282 121.641 177.037 122.234 176.943 123H181.177V122.891C181.136 122.156 180.938 121.589 180.584 121.188C180.229 120.781 179.75 120.578 179.146 120.578ZM189.218 125.758C189.218 125.367 189.069 125.065 188.773 124.852C188.481 124.633 187.968 124.445 187.233 124.289C186.504 124.133 185.924 123.945 185.491 123.727C185.064 123.508 184.747 123.247 184.538 122.945C184.335 122.643 184.233 122.284 184.233 121.867C184.233 121.174 184.525 120.589 185.108 120.109C185.697 119.63 186.447 119.391 187.358 119.391C188.317 119.391 189.093 119.638 189.687 120.133C190.286 120.628 190.585 121.26 190.585 122.031H189.132C189.132 121.635 188.963 121.294 188.624 121.008C188.291 120.721 187.869 120.578 187.358 120.578C186.832 120.578 186.421 120.693 186.124 120.922C185.827 121.151 185.679 121.451 185.679 121.82C185.679 122.169 185.817 122.432 186.093 122.609C186.369 122.786 186.866 122.956 187.585 123.117C188.309 123.279 188.895 123.471 189.343 123.695C189.791 123.919 190.122 124.19 190.335 124.508C190.554 124.82 190.663 125.203 190.663 125.656C190.663 126.411 190.361 127.018 189.757 127.477C189.153 127.93 188.369 128.156 187.405 128.156C186.728 128.156 186.129 128.036 185.608 127.797C185.088 127.557 184.679 127.224 184.382 126.797C184.09 126.365 183.944 125.898 183.944 125.398H185.39C185.416 125.883 185.608 126.268 185.968 126.555C186.332 126.836 186.812 126.977 187.405 126.977C187.952 126.977 188.39 126.867 188.718 126.648C189.051 126.424 189.218 126.128 189.218 125.758ZM192.157 123.695C192.157 122.867 192.318 122.122 192.641 121.461C192.969 120.799 193.422 120.289 194 119.93C194.584 119.57 195.248 119.391 195.993 119.391C197.144 119.391 198.073 119.789 198.782 120.586C199.495 121.383 199.852 122.443 199.852 123.766V123.867C199.852 124.69 199.693 125.43 199.375 126.086C199.063 126.737 198.612 127.245 198.024 127.609C197.441 127.974 196.769 128.156 196.008 128.156C194.862 128.156 193.933 127.758 193.219 126.961C192.511 126.164 192.157 125.109 192.157 123.797V123.695ZM193.61 123.867C193.61 124.805 193.826 125.557 194.258 126.125C194.696 126.693 195.279 126.977 196.008 126.977C196.743 126.977 197.326 126.69 197.758 126.117C198.191 125.539 198.407 124.732 198.407 123.695C198.407 122.768 198.185 122.018 197.743 121.445C197.305 120.867 196.722 120.578 195.993 120.578C195.279 120.578 194.704 120.862 194.266 121.43C193.829 121.997 193.61 122.81 193.61 123.867ZM206.58 125.758C206.58 125.367 206.432 125.065 206.135 124.852C205.843 124.633 205.33 124.445 204.596 124.289C203.866 124.133 203.286 123.945 202.853 123.727C202.426 123.508 202.109 123.247 201.9 122.945C201.697 122.643 201.596 122.284 201.596 121.867C201.596 121.174 201.887 120.589 202.471 120.109C203.059 119.63 203.809 119.391 204.721 119.391C205.679 119.391 206.455 119.638 207.049 120.133C207.648 120.628 207.947 121.26 207.947 122.031H206.494C206.494 121.635 206.325 121.294 205.986 121.008C205.653 120.721 205.231 120.578 204.721 120.578C204.195 120.578 203.783 120.693 203.486 120.922C203.189 121.151 203.041 121.451 203.041 121.82C203.041 122.169 203.179 122.432 203.455 122.609C203.731 122.786 204.228 122.956 204.947 123.117C205.671 123.279 206.257 123.471 206.705 123.695C207.153 123.919 207.484 124.19 207.697 124.508C207.916 124.82 208.025 125.203 208.025 125.656C208.025 126.411 207.723 127.018 207.119 127.477C206.515 127.93 205.731 128.156 204.768 128.156C204.09 128.156 203.491 128.036 202.971 127.797C202.45 127.557 202.041 127.224 201.744 126.797C201.452 126.365 201.307 125.898 201.307 125.398H202.752C202.778 125.883 202.971 126.268 203.33 126.555C203.695 126.836 204.174 126.977 204.768 126.977C205.314 126.977 205.752 126.867 206.08 126.648C206.413 126.424 206.58 126.128 206.58 125.758ZM145.93 147H144.43V135.625H145.93V147ZM149.814 138.547L149.861 139.609C150.507 138.797 151.35 138.391 152.392 138.391C154.178 138.391 155.08 139.398 155.095 141.414V147H153.65V141.406C153.645 140.797 153.504 140.346 153.228 140.055C152.957 139.763 152.533 139.617 151.955 139.617C151.486 139.617 151.074 139.742 150.72 139.992C150.366 140.242 150.09 140.57 149.892 140.977V147H148.447V138.547H149.814ZM159.229 136.5V138.547H160.807V139.664H159.229V144.906C159.229 145.245 159.3 145.5 159.44 145.672C159.581 145.839 159.82 145.922 160.159 145.922C160.326 145.922 160.555 145.891 160.847 145.828V147C160.466 147.104 160.097 147.156 159.737 147.156C159.091 147.156 158.604 146.961 158.276 146.57C157.948 146.18 157.784 145.625 157.784 144.906V139.664H156.245V138.547H157.784V136.5H159.229ZM166.004 147.156C164.858 147.156 163.926 146.781 163.207 146.031C162.489 145.276 162.129 144.268 162.129 143.008V142.742C162.129 141.904 162.288 141.156 162.606 140.5C162.929 139.839 163.377 139.323 163.949 138.953C164.528 138.578 165.153 138.391 165.824 138.391C166.923 138.391 167.778 138.753 168.387 139.477C168.996 140.201 169.301 141.237 169.301 142.586V143.188H163.574C163.595 144.021 163.837 144.695 164.301 145.211C164.77 145.721 165.364 145.977 166.082 145.977C166.593 145.977 167.025 145.872 167.379 145.664C167.733 145.456 168.043 145.18 168.309 144.836L169.192 145.523C168.483 146.612 167.421 147.156 166.004 147.156ZM165.824 139.578C165.241 139.578 164.752 139.792 164.356 140.219C163.96 140.641 163.715 141.234 163.621 142H167.856V141.891C167.814 141.156 167.616 140.589 167.262 140.188C166.908 139.781 166.429 139.578 165.824 139.578ZM175.06 139.844C174.841 139.807 174.604 139.789 174.349 139.789C173.401 139.789 172.758 140.193 172.42 141V147H170.974V138.547H172.381L172.404 139.523C172.878 138.768 173.55 138.391 174.42 138.391C174.701 138.391 174.914 138.427 175.06 138.5V139.844ZM177.757 138.547L177.804 139.609C178.45 138.797 179.293 138.391 180.335 138.391C182.122 138.391 183.023 139.398 183.038 141.414V147H181.593V141.406C181.588 140.797 181.447 140.346 181.171 140.055C180.9 139.763 180.476 139.617 179.898 139.617C179.429 139.617 179.017 139.742 178.663 139.992C178.309 140.242 178.033 140.57 177.835 140.977V147H176.39V138.547H177.757ZM184.829 142.695C184.829 141.867 184.99 141.122 185.313 140.461C185.641 139.799 186.094 139.289 186.672 138.93C187.256 138.57 187.92 138.391 188.665 138.391C189.816 138.391 190.745 138.789 191.454 139.586C192.167 140.383 192.524 141.443 192.524 142.766V142.867C192.524 143.69 192.365 144.43 192.047 145.086C191.735 145.737 191.284 146.245 190.696 146.609C190.112 146.974 189.441 147.156 188.68 147.156C187.534 147.156 186.605 146.758 185.891 145.961C185.183 145.164 184.829 144.109 184.829 142.797V142.695ZM186.282 142.867C186.282 143.805 186.498 144.557 186.93 145.125C187.368 145.693 187.951 145.977 188.68 145.977C189.415 145.977 189.998 145.69 190.43 145.117C190.862 144.539 191.079 143.732 191.079 142.695C191.079 141.768 190.857 141.018 190.415 140.445C189.977 139.867 189.394 139.578 188.665 139.578C187.951 139.578 187.375 139.862 186.938 140.43C186.5 140.997 186.282 141.81 186.282 142.867ZM199.252 144.758C199.252 144.367 199.103 144.065 198.807 143.852C198.515 143.633 198.002 143.445 197.268 143.289C196.538 143.133 195.958 142.945 195.525 142.727C195.098 142.508 194.781 142.247 194.572 141.945C194.369 141.643 194.268 141.284 194.268 140.867C194.268 140.174 194.559 139.589 195.143 139.109C195.731 138.63 196.481 138.391 197.393 138.391C198.351 138.391 199.127 138.638 199.721 139.133C200.32 139.628 200.619 140.26 200.619 141.031H199.166C199.166 140.635 198.997 140.294 198.658 140.008C198.325 139.721 197.903 139.578 197.393 139.578C196.866 139.578 196.455 139.693 196.158 139.922C195.861 140.151 195.713 140.451 195.713 140.82C195.713 141.169 195.851 141.432 196.127 141.609C196.403 141.786 196.9 141.956 197.619 142.117C198.343 142.279 198.929 142.471 199.377 142.695C199.825 142.919 200.156 143.19 200.369 143.508C200.588 143.82 200.697 144.203 200.697 144.656C200.697 145.411 200.395 146.018 199.791 146.477C199.187 146.93 198.403 147.156 197.439 147.156C196.762 147.156 196.163 147.036 195.643 146.797C195.122 146.557 194.713 146.224 194.416 145.797C194.124 145.365 193.978 144.898 193.978 144.398H195.424C195.45 144.883 195.643 145.268 196.002 145.555C196.366 145.836 196.846 145.977 197.439 145.977C197.986 145.977 198.424 145.867 198.752 145.648C199.085 145.424 199.252 145.128 199.252 144.758Z" fill="black"/>
<rect x="11" y="12" width="98" height="75" rx="8" fill="#FFC800"/>
<rect x="141" y="12" width="98" height="75" rx="8" fill="#453F3F" fill-opacity="0.1"/>
<path d="M68.75 46.5C70.8211 46.5 72.5 44.8211 72.5 42.75C72.5 40.6789 70.8211 39 68.75 39C66.6789 39 65 40.6789 65 42.75C65 44.8211 66.6789 46.5 68.75 46.5Z" fill="#453F3F" fill-opacity="0.8"/>
<path d="M51.25 46.5C53.3211 46.5 55 44.8211 55 42.75C55 40.6789 53.3211 39 51.25 39C49.1789 39 47.5 40.6789 47.5 42.75C47.5 44.8211 49.1789 46.5 51.25 46.5Z" fill="#453F3F" fill-opacity="0.8"/>
<path d="M59.975 24C46.175 24 35 35.2 35 49C35 62.8 46.175 74 59.975 74C73.8 74 85 62.8 85 49C85 35.2 73.8 24 59.975 24ZM60 69C48.95 69 40 60.05 40 49C40 37.95 48.95 29 60 29C71.05 29 80 37.95 80 49C80 60.05 71.05 69 60 69ZM47.5 54C49.45 59.85 54.3 64 60 64C65.7 64 70.55 59.85 72.5 54H47.5Z" fill="#453F3F" fill-opacity="0.8"/>
<path d="M198.75 46.5C200.821 46.5 202.5 44.8211 202.5 42.75C202.5 40.6789 200.821 39 198.75 39C196.679 39 195 40.6789 195 42.75C195 44.8211 196.679 46.5 198.75 46.5Z" fill="#453F3F" fill-opacity="0.8"/>
<path d="M181.25 46.5C183.321 46.5 185 44.8211 185 42.75C185 40.6789 183.321 39 181.25 39C179.179 39 177.5 40.6789 177.5 42.75C177.5 44.8211 179.179 46.5 181.25 46.5Z" fill="#453F3F" fill-opacity="0.8"/>
<path d="M189.975 24C176.175 24 165 35.2 165 49C165 62.8 176.175 74 189.975 74C203.8 74 215 62.8 215 49C215 35.2 203.8 24 189.975 24ZM190 69C178.95 69 170 60.05 170 49C170 37.95 178.95 29 190 29C201.05 29 210 37.95 210 49C210 60.05 201.05 69 190 69ZM177.5 54C179.45 59.85 184.3 64 190 64C195.7 64 200.55 59.85 202.5 54H177.5Z" fill="#453F3F" fill-opacity="0.8"/>
</svg>
